<?xml version="1.0" ?>
<svg
        id="root"
        version="1.1"
        viewBox="0 0 30 30"
        fill="currentColor"
        xmlns="http://www.w3.org/2000/svg"
><g data-name="Layer 2" id="Layer_2"><g id="Interface-Solid"><g id="work-business-solid-task-list-1"><path d="M10,18H1.91669L11,27.90912V19A1.001,1.001,0,0,0,10,18Z" fill="none"/><path d="M26,0H23V3a1,1,0,0,1-2,0V0H9V3A1,1,0,0,1,7,3V0H4A4.19619,4.19619,0,0,0,0,4.35986V17.7998a1.00238,1.00238,0,0,0,.25391.666l10,11.2002A.99974.99974,0,0,0,11,30H26a4.19619,4.19619,0,0,0,4-4.35986V4.35986A4.19619,4.19619,0,0,0,26,0ZM11,27.90912,1.91669,18H10a1.001,1.001,0,0,1,1,1Z"/></g></g></g></svg>